<!DOCTYPE svg PUBLIC "-//W3C//DTD SVG 1.1//EN" "http://www.w3.org/Graphics/SVG/1.1/DTD/svg11.dtd">
<!-- Uploaded to: SVG Repo, www.svgrepo.com, Transformed by: SVG Repo Mixer Tools -->
<svg fill="#ffffff" height="800px" width="800px" version="1.1" id="Capa_1" xmlns="http://www.w3.org/2000/svg" xmlns:xlink="http://www.w3.org/1999/xlink" viewBox="0 0 46 46" xml:space="preserve" stroke="#ffffff">
<g id="SVGRepo_bgCarrier" stroke-width="0"/>
<g id="SVGRepo_tracerCarrier" stroke-linecap="round" stroke-linejoin="round"/>
<g id="SVGRepo_iconCarrier"> <g> <path d="M34.894,0c-0.551,0-1.097,0.153-1.579,0.444c-0.046,0.027-0.09,0.059-0.13,0.093L19.634,12H9c-0.553,0-1,0.447-1,1v19 c0,0.553,0.447,1,1,1h10.61l13.543,12.436c0.05,0.046,0.104,0.086,0.161,0.12C33.797,45.847,34.343,46,34.894,46 C36.606,46,38,44.584,38,42.844V3.156C38,1.416,36.606,0,34.894,0z M21,31c0,0.553-0.447,1-1,1s-1-0.447-1-1v-4 c0-0.553,0.447-1,1-1s1,0.447,1,1V31z M21,18c0,0.553-0.447,1-1,1s-1-0.447-1-1v-4c0-0.553,0.447-1,1-1s1,0.447,1,1V18z"/> </g> </g>
</svg>